<?xml version="1.0" standalone="no"?>
<!DOCTYPE svg PUBLIC "-//W3C//DTD SVG 20010904//EN"
 "http://www.w3.org/TR/2001/REC-SVG-20010904/DTD/svg10.dtd">
<svg version="1.0" xmlns="http://www.w3.org/2000/svg"
 width="512.000000pt" height="512.000000pt" viewBox="0 0 512.000000 512.000000"
 preserveAspectRatio="xMidYMid meet">

<g transform="translate(0.000000,512.000000) scale(0.100000,-0.100000)"
fill="#000000" stroke="none">
<path d="M0 2560 l0 -2560 2560 0 2560 0 0 2560 0 2560 -2560 0 -2560 0 0
-2560z m2884 2105 c921 -143 1638 -863 1783 -1790 24 -152 24 -478 0 -630
-133 -850 -745 -1530 -1572 -1746 -292 -76 -633 -88 -924 -33 -896 170 -1576
875 -1718 1779 -24 152 -24 478 0 630 135 859 753 1539 1592 1750 72 18 173
38 225 44 52 6 109 13 125 15 63 9 394 -4 489 -19z"/>
<path d="M1641 3582 c-48 -94 -49 -274 -3 -458 l17 -69 -48 -91 c-26 -50 -56
-127 -68 -170 -27 -105 -27 -269 -1 -373 l19 -74 -61 7 c-34 3 -144 8 -246 11
-150 5 -204 2 -285 -12 -58 -11 -98 -22 -95 -28 3 -5 7 -9 10 -8 3 1 53 9 112
17 126 19 211 20 420 4 150 -11 157 -12 167 -35 6 -13 11 -27 11 -31 0 -4 -94
-6 -208 -4 -186 4 -218 2 -291 -17 -88 -22 -201 -68 -201 -82 0 -14 14 -11 72
16 109 50 197 65 367 64 86 -1 184 -4 217 -8 l62 -6 48 -64 c126 -168 336
-278 634 -330 l94 -17 -47 -23 c-67 -33 -145 -107 -197 -189 -25 -39 -52 -74
-60 -78 -30 -14 -276 -17 -316 -4 -61 20 -126 73 -194 160 -85 107 -135 138
-245 154 -79 12 -75 -5 21 -101 64 -63 104 -114 141 -178 89 -155 105 -177
152 -207 72 -45 130 -58 268 -58 l123 0 0 -184 0 -185 53 -15 c54 -16 137 -35
150 -36 4 0 7 107 7 238 0 219 2 240 18 255 25 22 48 21 72 -3 19 -19 20 -33
20 -264 l0 -243 46 -7 c26 -3 73 -6 105 -6 l59 0 0 309 c0 336 0 334 57 334
51 0 53 -12 53 -340 0 -167 1 -303 3 -303 16 0 176 22 190 26 16 5 17 25 17
243 0 218 2 239 18 254 25 22 48 21 72 -3 19 -19 20 -33 20 -244 l0 -224 48
14 c26 8 73 24 105 35 l57 21 0 172 c0 203 -13 275 -69 390 -65 133 -132 203
-266 282 -15 8 3 14 84 27 285 47 529 182 642 357 l31 48 97 8 c164 14 338 10
429 -10 74 -16 105 -16 91 -1 -11 11 -161 36 -244 41 -49 4 -148 1 -220 -5
-71 -5 -131 -9 -132 -7 -2 2 8 32 21 67 77 205 56 450 -54 642 l-39 68 21 87
c18 69 22 118 22 237 1 138 -1 154 -22 198 l-24 47 -52 0 c-110 0 -245 -52
-360 -140 l-70 -52 -80 26 c-140 45 -229 59 -391 59 -161 0 -244 -13 -397 -59
l-87 -27 -38 34 c-98 88 -236 148 -360 157 l-71 5 -21 -41z"/>
<path d="M3805 2353 c-60 -8 -114 -19 -120 -25 -7 -7 7 -9 45 -5 294 30 286
30 406 13 105 -15 137 -15 123 -1 -3 2 -47 11 -99 20 -115 18 -209 18 -355 -2z"/>
</g>
</svg>
